<svg width="90" height="76" viewBox="0 0 90 76" fill="none" xmlns="http://www.w3.org/2000/svg">
<path d="M66.3559 0.597204C64.0678 -0.331783 61.2076 -0.176947 58.9195 1.0617L28.6017 19.1769H7.05509C3.24153 19.1769 0 21.8091 0 24.9057V50.9173C0 54.014 3.24153 56.6461 7.05509 56.6461H28.411L58.9195 74.9162C60.2542 75.6903 61.589 76 63.1144 76C64.2585 76 65.2119 75.8452 66.3559 75.3807C68.8348 74.4517 70.1695 72.4389 70.1695 70.2713V5.70664C70.1695 3.539 68.6441 1.52619 66.3559 0.597204ZM3.81356 50.9173V24.9057C3.81356 23.5122 5.33899 22.2736 7.05509 22.2736H27.4576V53.5495H7.05509C5.33899 53.5495 3.81356 52.3108 3.81356 50.9173ZM66.3559 70.2713C66.3559 71.3551 65.7839 72.1292 64.6398 72.5937C63.4958 73.0582 62.3517 72.9034 61.2076 72.4389L31.2712 54.4785V21.4994L61.2076 3.539C62.161 2.91967 63.4958 2.91968 64.6398 3.38417C65.7839 3.84866 66.3559 4.77765 66.3559 5.70664V70.2713Z" fill="#231F20"/>
<path d="M76.2712 26.7637C75.1271 26.7637 74.3644 27.383 74.3644 28.312C74.3644 29.241 75.1271 29.8603 76.2712 29.8603C81.8009 29.8603 86.1864 33.4214 86.1864 37.9115C86.1864 42.4016 81.8009 45.9627 76.2712 45.9627C75.1271 45.9627 74.3644 46.5821 74.3644 47.5111C74.3644 48.44 75.1271 49.0594 76.2712 49.0594C83.8983 49.0594 90 44.1048 90 37.9115C90 31.7183 83.8983 26.7637 76.2712 26.7637Z" fill="#231F20"/>
</svg>
