<svg width="83" height="83" viewBox="0 0 83 83" fill="none" xmlns="http://www.w3.org/2000/svg">
<path d="M61.077 0.650953C58.9708 -0.361643 56.3382 -0.192872 54.2321 1.15726L26.3263 20.9029H6.49382C2.98365 20.9029 0 23.7719 0 27.1472V55.4999C0 58.8752 2.98365 61.7442 6.49382 61.7442H26.1508L54.2321 81.6586C55.4607 82.5025 56.6892 82.84 58.0933 82.84C59.1464 82.84 60.0239 82.6712 61.077 82.1649C63.3586 81.1523 64.5871 78.9584 64.5871 76.5957V6.22024C64.5871 3.85751 63.1831 1.66355 61.077 0.650953ZM3.51017 55.4999V27.1472C3.51017 25.6283 4.91425 24.2782 6.49382 24.2782H25.2732V58.3689H6.49382C4.91425 58.3689 3.51017 57.0188 3.51017 55.4999ZM61.077 76.5957C61.077 77.777 60.5504 78.6209 59.4974 79.1272C58.4443 79.6335 57.3913 79.4647 56.3382 78.9584L28.7834 59.3815V23.4344L56.3382 3.85751C57.2158 3.18245 58.4443 3.18245 59.4974 3.68875C60.5504 4.19504 61.077 5.20764 61.077 6.22024V76.5957Z" fill="#231F20"/>
<path d="M70.2034 29.1724C69.1503 29.1724 68.4483 29.8474 68.4483 30.86C68.4483 31.8726 69.1503 32.5477 70.2034 32.5477C75.2931 32.5477 79.3298 36.4293 79.3298 41.3235C79.3298 46.2177 75.2931 50.0993 70.2034 50.0993C69.1503 50.0993 68.4483 50.7744 68.4483 51.787C68.4483 52.7996 69.1503 53.4747 70.2034 53.4747C77.2237 53.4747 82.84 48.0741 82.84 41.3235C82.84 34.5729 77.2237 29.1724 70.2034 29.1724Z" fill="#231F20"/>
</svg>
