<svg width="71" height="78" viewBox="0 0 71 78" fill="none" xmlns="http://www.w3.org/2000/svg">
<path d="M67.1413 0.61292C64.8261 -0.340514 61.9321 -0.181604 59.6169 1.08964L28.9402 19.6816H7.13859C3.27989 19.6816 0 22.383 0 25.5611V52.2573C0 55.4354 3.27989 58.1368 7.13859 58.1368H28.7473L59.6169 76.8877C60.9674 77.6822 62.3179 78 63.8614 78C65.019 78 65.9837 77.8411 67.1413 77.3644C69.6495 76.4109 71 74.3452 71 72.1205V5.85681C71 3.63213 69.4565 1.56635 67.1413 0.61292ZM3.8587 52.2573V25.5611C3.8587 24.131 5.40217 22.8597 7.13859 22.8597H27.7826V54.9587H7.13859C5.40217 54.9587 3.8587 53.6874 3.8587 52.2573ZM67.1413 72.1205C67.1413 73.2328 66.5625 74.0274 65.4049 74.5041C64.2473 74.9808 63.0897 74.8219 61.9321 74.3452L31.6413 55.9121V22.0652L61.9321 3.63213C62.8967 2.99651 64.2473 2.99651 65.4049 3.47323C66.5625 3.94994 67.1413 4.90338 67.1413 5.85681V72.1205Z" fill="#231F20"/>
</svg>
