<svg width="84" height="83" viewBox="0 0 84 83" fill="none" xmlns="http://www.w3.org/2000/svg">
<mask id="path-1-inside-1_1_6" fill="white">
<path fill-rule="evenodd" clip-rule="evenodd" d="M13.525 54.3613L42 82.8364L67.8864 56.95L70.475 54.3614C77.6233 47.213 77.6233 35.6233 70.475 28.475C63.3267 21.3267 51.737 21.3267 44.5887 28.475L42 31.0636L39.4114 28.475C32.263 21.3267 20.6733 21.3267 13.525 28.475C6.37668 35.6233 6.37666 47.213 13.525 54.3613Z"/>
</mask>
<path d="M42 82.8364L38.8936 85.9427L42 89.0491L45.1064 85.9427L42 82.8364ZM13.525 54.3613L16.6313 51.255L13.525 54.3613ZM67.8864 56.95L64.78 53.8436L67.8864 56.95ZM42 31.0636L38.8936 34.17L42 37.2764L45.1064 34.17L42 31.0636ZM13.525 28.475L10.4186 25.3686L13.525 28.475ZM45.1064 79.73L16.6313 51.255L10.4186 57.4677L38.8936 85.9427L45.1064 79.73ZM64.78 53.8436L38.8936 79.73L45.1064 85.9427L70.9927 60.0564L64.78 53.8436ZM67.3687 51.255L64.78 53.8436L70.9927 60.0564L73.5814 57.4677L67.3687 51.255ZM67.3686 31.5814C72.8014 37.0141 72.8014 45.8223 67.3687 51.255L73.5814 57.4677C82.4453 48.6038 82.4453 34.2325 73.5814 25.3686L67.3686 31.5814ZM47.695 31.5813C53.1277 26.1486 61.9359 26.1486 67.3686 31.5814L73.5814 25.3686C64.7175 16.5047 50.3462 16.5047 41.4823 25.3686L47.695 31.5813ZM45.1064 34.17L47.695 31.5813L41.4823 25.3686L38.8936 27.9573L45.1064 34.17ZM36.305 31.5814L38.8936 34.17L45.1064 27.9573L42.5177 25.3686L36.305 31.5814ZM16.6314 31.5814C22.0641 26.1486 30.8723 26.1486 36.305 31.5814L42.5177 25.3686C33.6538 16.5047 19.2826 16.5047 10.4186 25.3686L16.6314 31.5814ZM16.6313 51.255C11.1986 45.8223 11.1986 37.0141 16.6314 31.5814L10.4186 25.3686C1.55472 34.2325 1.5547 48.6038 10.4186 57.4677L16.6313 51.255Z" fill="black" mask="url(#path-1-inside-1_1_6)"/>
</svg>
