<svg width="14" height="9" viewBox="0 0 14 9" fill="none" xmlns="http://www.w3.org/2000/svg">
<path d="M7.07066 5.81388L12.0207 0.863882C12.1129 0.768372 12.2232 0.69219 12.3453 0.639781C12.4673 0.587372 12.5985 0.559785 12.7313 0.558632C12.864 0.557478 12.9957 0.582779 13.1186 0.63306C13.2415 0.683341 13.3532 0.757594 13.4471 0.851487C13.5409 0.94538 13.6152 1.05703 13.6655 1.17993C13.7158 1.30282 13.7411 1.4345 13.7399 1.56728C13.7388 1.70006 13.7112 1.83128 13.6588 1.95329C13.6063 2.07529 13.5302 2.18564 13.4347 2.27788L7.77766 7.93488C7.59013 8.12235 7.33582 8.22767 7.07066 8.22767C6.80549 8.22767 6.55118 8.12235 6.36366 7.93488L0.706655 2.27788C0.611145 2.18564 0.534963 2.07529 0.482554 1.95329C0.430145 1.83128 0.402559 1.70006 0.401405 1.56728C0.400251 1.4345 0.425553 1.30282 0.475834 1.17993C0.526115 1.05703 0.600368 0.94538 0.69426 0.851487C0.788153 0.757594 0.899805 0.683341 1.0227 0.63306C1.1456 0.582779 1.27728 0.557478 1.41006 0.558632C1.54284 0.559785 1.67406 0.587372 1.79606 0.639781C1.91806 0.69219 2.02841 0.768372 2.12066 0.863882L7.07066 5.81388Z" fill="white"/>
</svg>
