<svg width="385" height="47" viewBox="0 0 385 47" fill="none" xmlns="http://www.w3.org/2000/svg">
<path d="M20.784 43.32L4.656 4.024L0.24 1.784V0.759998H16.24V1.784L10.736 4.152V4.472L22.704 33.784H23.024L34.928 4.216V3.96L29.68 1.784V0.759998H43.12V1.784L39.472 3.704L23.024 43.32H20.784ZM48.495 43V42.232L52.335 40.312V14.008L48.495 12.088V11.32H71.967V19.576H71.199L68.223 13.96H56.655V25.336H64.815L67.215 21.352H67.983V31.864H67.215L64.815 27.976H56.655V40.36H69.567L72.543 34.264H73.311V43H48.495ZM79.8075 43V42.232L83.6475 40.312V14.008L79.8075 12.088V11.32H92.1915C95.5515 11.32 98.1915 12.024 100.112 13.432C102.064 14.808 103.04 16.712 103.04 19.144C103.04 20.936 102.432 22.552 101.216 23.992C99.9995 25.4 98.3835 26.472 96.3675 27.208L105.488 40.504L108.656 42.232V43H101.744L92.4315 28.456H87.9675V40.264L91.5675 42.232V43H79.8075ZM91.0875 13.96H87.9675V25.816H91.3755C93.3915 25.816 95.0555 25.256 96.3675 24.136C97.7115 22.984 98.3835 21.528 98.3835 19.768C98.3835 17.976 97.7275 16.568 96.4155 15.544C95.1035 14.488 93.3275 13.96 91.0875 13.96ZM121.094 43.48C119.11 43.48 117.43 43.304 116.054 42.952C114.678 42.568 113.254 42.008 111.782 41.272L111.302 33.4H112.07L114.422 38.488C115.574 39.448 116.694 40.152 117.782 40.6C118.87 41.016 119.974 41.224 121.094 41.224C122.982 41.224 124.454 40.728 125.51 39.736C126.598 38.744 127.142 37.4 127.142 35.704C127.142 34.296 126.822 33.192 126.182 32.392C125.574 31.592 124.678 30.888 123.494 30.28C122.342 29.64 120.966 28.92 119.366 28.12C117.862 27.352 116.582 26.6 115.526 25.864C114.47 25.128 113.67 24.28 113.126 23.32C112.582 22.328 112.31 21.096 112.31 19.624C112.31 18.536 112.566 17.48 113.078 16.456C113.622 15.4 114.342 14.456 115.238 13.624C116.166 12.76 117.19 12.088 118.31 11.608C119.462 11.096 120.646 10.84 121.862 10.84C123.334 10.84 124.694 11.016 125.942 11.368C127.19 11.72 128.47 12.216 129.782 12.856L130.262 20.536H129.494L127.286 15.496C126.166 14.664 125.19 14.072 124.358 13.72C123.526 13.336 122.566 13.144 121.478 13.144C120.07 13.144 118.902 13.624 117.974 14.584C117.078 15.544 116.63 16.728 116.63 18.136C116.63 19.768 117.126 21.048 118.118 21.976C119.11 22.872 120.662 23.832 122.774 24.856C124.726 25.816 126.326 26.712 127.574 27.544C128.822 28.344 129.75 29.272 130.358 30.328C130.966 31.384 131.27 32.728 131.27 34.36C131.27 35.864 130.95 37.192 130.31 38.344C129.67 39.464 128.838 40.408 127.814 41.176C126.822 41.944 125.718 42.52 124.502 42.904C123.318 43.288 122.182 43.48 121.094 43.48ZM137.042 43V42.232L140.882 40.312V14.008L137.042 12.088V11.32H160.514V19.576H159.746L156.77 13.96H145.202V25.336H153.362L155.762 21.352H156.53V31.864H155.762L153.362 27.976H145.202V40.36H158.114L161.09 34.264H161.858V43H137.042ZM188.018 43.32L171.89 4.024L167.474 1.784V0.759998H183.474V1.784L177.97 4.152V4.472L189.938 33.784H190.258L202.162 4.216V3.96L196.914 1.784V0.759998H210.354V1.784L206.706 3.704L190.258 43.32H188.018ZM215.969 43V42.232L219.809 40.312V14.008L215.969 12.088V11.32H227.969V12.088L224.129 14.008V40.312L227.969 42.232V43H215.969ZM243.984 43.48C242.001 43.48 240.321 43.304 238.945 42.952C237.569 42.568 236.145 42.008 234.673 41.272L234.193 33.4H234.961L237.312 38.488C238.465 39.448 239.585 40.152 240.673 40.6C241.761 41.016 242.865 41.224 243.984 41.224C245.873 41.224 247.345 40.728 248.401 39.736C249.489 38.744 250.033 37.4 250.033 35.704C250.033 34.296 249.713 33.192 249.073 32.392C248.465 31.592 247.569 30.888 246.385 30.28C245.233 29.64 243.857 28.92 242.257 28.12C240.753 27.352 239.473 26.6 238.417 25.864C237.361 25.128 236.561 24.28 236.017 23.32C235.473 22.328 235.201 21.096 235.201 19.624C235.201 18.536 235.457 17.48 235.969 16.456C236.513 15.4 237.233 14.456 238.129 13.624C239.057 12.76 240.081 12.088 241.201 11.608C242.353 11.096 243.537 10.84 244.753 10.84C246.225 10.84 247.585 11.016 248.833 11.368C250.081 11.72 251.361 12.216 252.673 12.856L253.153 20.536H252.385L250.177 15.496C249.057 14.664 248.081 14.072 247.249 13.72C246.417 13.336 245.457 13.144 244.369 13.144C242.961 13.144 241.793 13.624 240.865 14.584C239.969 15.544 239.521 16.728 239.521 18.136C239.521 19.768 240.017 21.048 241.009 21.976C242.001 22.872 243.553 23.832 245.665 24.856C247.617 25.816 249.217 26.712 250.465 27.544C251.713 28.344 252.641 29.272 253.249 30.328C253.857 31.384 254.161 32.728 254.161 34.36C254.161 35.864 253.841 37.192 253.201 38.344C252.561 39.464 251.729 40.408 250.705 41.176C249.713 41.944 248.609 42.52 247.393 42.904C246.209 43.288 245.073 43.48 243.984 43.48ZM260.173 43V42.232L264.013 40.312V14.008L260.173 12.088V11.32H272.173V12.088L268.333 14.008V40.312L272.173 42.232V43H260.173ZM326.396 43V42.232L330.236 40.312V14.104L326.444 12.088V11.32H333.5L351.836 34.36V13.912L347.036 12.088V11.32H358.988V12.088L355.196 13.96V43.24H353.42L333.596 18.232V40.36L338.396 42.232V43H326.396ZM374.531 43.48C372.547 43.48 370.867 43.304 369.491 42.952C368.115 42.568 366.691 42.008 365.219 41.272L364.739 33.4H365.507L367.859 38.488C369.011 39.448 370.131 40.152 371.219 40.6C372.307 41.016 373.411 41.224 374.531 41.224C376.419 41.224 377.891 40.728 378.947 39.736C380.035 38.744 380.579 37.4 380.579 35.704C380.579 34.296 380.259 33.192 379.619 32.392C379.011 31.592 378.115 30.888 376.931 30.28C375.779 29.64 374.403 28.92 372.803 28.12C371.299 27.352 370.019 26.6 368.963 25.864C367.907 25.128 367.107 24.28 366.563 23.32C366.019 22.328 365.747 21.096 365.747 19.624C365.747 18.536 366.003 17.48 366.515 16.456C367.059 15.4 367.779 14.456 368.675 13.624C369.603 12.76 370.627 12.088 371.747 11.608C372.899 11.096 374.083 10.84 375.299 10.84C376.771 10.84 378.131 11.016 379.379 11.368C380.627 11.72 381.907 12.216 383.219 12.856L383.699 20.536H382.931L380.723 15.496C379.603 14.664 378.627 14.072 377.795 13.72C376.963 13.336 376.003 13.144 374.915 13.144C373.507 13.144 372.339 13.624 371.411 14.584C370.515 15.544 370.067 16.728 370.067 18.136C370.067 19.768 370.563 21.048 371.555 21.976C372.547 22.872 374.099 23.832 376.211 24.856C378.163 25.816 379.763 26.712 381.011 27.544C382.259 28.344 383.187 29.272 383.795 30.328C384.403 31.384 384.707 32.728 384.707 34.36C384.707 35.864 384.387 37.192 383.747 38.344C383.107 39.464 382.275 40.408 381.251 41.176C380.259 41.944 379.155 42.52 377.939 42.904C376.755 43.288 375.619 43.48 374.531 43.48Z" fill="black"/>
<g clip-path="url(#clip0_0_1)">
<path d="M279.958 27C279.958 27 287.792 13.6667 301.5 13.6667C315.208 13.6667 323.042 27 323.042 27C323.042 27 315.208 40.3333 301.5 40.3333C287.792 40.3333 279.958 27 279.958 27Z" stroke="#678D58" stroke-width="4" stroke-linecap="round" stroke-linejoin="round"/>
<path d="M301.5 32C304.745 32 307.375 29.7614 307.375 27C307.375 24.2386 304.745 22 301.5 22C298.255 22 295.625 24.2386 295.625 27C295.625 29.7614 298.255 32 301.5 32Z" stroke="#678D58" stroke-width="4" stroke-linecap="round" stroke-linejoin="round"/>
</g>
<defs>
<clipPath id="clip0_0_1">
<rect width="47" height="40" fill="white" transform="translate(278 7)"/>
</clipPath>
</defs>
</svg>
