<svg width="537" height="79" viewBox="0 0 537 79" fill="none" xmlns="http://www.w3.org/2000/svg">
<path d="M22.784 68.32L6.656 29.024L2.24 26.784V25.76H18.24V26.784L12.736 29.152V29.472L24.704 58.784H25.024L36.928 29.216V28.96L31.68 26.784V25.76H45.12V26.784L41.472 28.704L25.024 68.32H22.784ZM50.495 68V67.232L54.335 65.312V39.008L50.495 37.088V36.32H73.967V44.576H73.199L70.223 38.96H58.655V50.336H66.815L69.215 46.352H69.983V56.864H69.215L66.815 52.976H58.655V65.36H71.567L74.543 59.264H75.311V68H50.495ZM81.8075 68V67.232L85.6475 65.312V39.008L81.8075 37.088V36.32H94.1915C97.5515 36.32 100.192 37.024 102.112 38.432C104.064 39.808 105.04 41.712 105.04 44.144C105.04 45.936 104.432 47.552 103.216 48.992C102 50.4 100.384 51.472 98.3675 52.208L107.488 65.504L110.656 67.232V68H103.744L94.4315 53.456H89.9675V65.264L93.5675 67.232V68H81.8075ZM93.0875 38.96H89.9675V50.816H93.3755C95.3915 50.816 97.0555 50.256 98.3675 49.136C99.7115 47.984 100.384 46.528 100.384 44.768C100.384 42.976 99.7275 41.568 98.4155 40.544C97.1035 39.488 95.3275 38.96 93.0875 38.96ZM123.094 68.48C121.11 68.48 119.43 68.304 118.054 67.952C116.678 67.568 115.254 67.008 113.782 66.272L113.302 58.4H114.07L116.422 63.488C117.574 64.448 118.694 65.152 119.782 65.6C120.87 66.016 121.974 66.224 123.094 66.224C124.982 66.224 126.454 65.728 127.51 64.736C128.598 63.744 129.142 62.4 129.142 60.704C129.142 59.296 128.822 58.192 128.182 57.392C127.574 56.592 126.678 55.888 125.494 55.28C124.342 54.64 122.966 53.92 121.366 53.12C119.862 52.352 118.582 51.6 117.526 50.864C116.47 50.128 115.67 49.28 115.126 48.32C114.582 47.328 114.31 46.096 114.31 44.624C114.31 43.536 114.566 42.48 115.078 41.456C115.622 40.4 116.342 39.456 117.238 38.624C118.166 37.76 119.19 37.088 120.31 36.608C121.462 36.096 122.646 35.84 123.862 35.84C125.334 35.84 126.694 36.016 127.942 36.368C129.19 36.72 130.47 37.216 131.782 37.856L132.262 45.536H131.494L129.286 40.496C128.166 39.664 127.19 39.072 126.358 38.72C125.526 38.336 124.566 38.144 123.478 38.144C122.07 38.144 120.902 38.624 119.974 39.584C119.078 40.544 118.63 41.728 118.63 43.136C118.63 44.768 119.126 46.048 120.118 46.976C121.11 47.872 122.662 48.832 124.774 49.856C126.726 50.816 128.326 51.712 129.574 52.544C130.822 53.344 131.75 54.272 132.358 55.328C132.966 56.384 133.27 57.728 133.27 59.36C133.27 60.864 132.95 62.192 132.31 63.344C131.67 64.464 130.838 65.408 129.814 66.176C128.822 66.944 127.718 67.52 126.502 67.904C125.318 68.288 124.182 68.48 123.094 68.48ZM139.042 68V67.232L142.882 65.312V39.008L139.042 37.088V36.32H162.514V44.576H161.746L158.77 38.96H147.202V50.336H155.362L157.762 46.352H158.53V56.864H157.762L155.362 52.976H147.202V65.36H160.114L163.09 59.264H163.858V68H139.042ZM190.018 68.32L173.89 29.024L169.474 26.784V25.76H185.474V26.784L179.97 29.152V29.472L191.938 58.784H192.258L204.162 29.216V28.96L198.914 26.784V25.76H212.354V26.784L208.706 28.704L192.258 68.32H190.018ZM217.969 68V67.232L221.809 65.312V39.008L217.969 37.088V36.32H229.969V37.088L226.129 39.008V65.312L229.969 67.232V68H217.969ZM245.984 68.48C244.001 68.48 242.321 68.304 240.945 67.952C239.569 67.568 238.145 67.008 236.673 66.272L236.193 58.4H236.961L239.312 63.488C240.465 64.448 241.585 65.152 242.673 65.6C243.761 66.016 244.865 66.224 245.984 66.224C247.873 66.224 249.345 65.728 250.401 64.736C251.489 63.744 252.033 62.4 252.033 60.704C252.033 59.296 251.713 58.192 251.073 57.392C250.465 56.592 249.569 55.888 248.385 55.28C247.233 54.64 245.857 53.92 244.257 53.12C242.753 52.352 241.473 51.6 240.417 50.864C239.361 50.128 238.561 49.28 238.017 48.32C237.473 47.328 237.201 46.096 237.201 44.624C237.201 43.536 237.457 42.48 237.969 41.456C238.513 40.4 239.233 39.456 240.129 38.624C241.057 37.76 242.081 37.088 243.201 36.608C244.353 36.096 245.537 35.84 246.753 35.84C248.225 35.84 249.585 36.016 250.833 36.368C252.081 36.72 253.361 37.216 254.673 37.856L255.153 45.536H254.385L252.177 40.496C251.057 39.664 250.081 39.072 249.249 38.72C248.417 38.336 247.457 38.144 246.369 38.144C244.961 38.144 243.793 38.624 242.865 39.584C241.969 40.544 241.521 41.728 241.521 43.136C241.521 44.768 242.017 46.048 243.009 46.976C244.001 47.872 245.553 48.832 247.665 49.856C249.617 50.816 251.217 51.712 252.465 52.544C253.713 53.344 254.641 54.272 255.249 55.328C255.857 56.384 256.161 57.728 256.161 59.36C256.161 60.864 255.841 62.192 255.201 63.344C254.561 64.464 253.729 65.408 252.705 66.176C251.713 66.944 250.609 67.52 249.393 67.904C248.209 68.288 247.073 68.48 245.984 68.48ZM262.173 68V67.232L266.013 65.312V39.008L262.173 37.088V36.32H274.173V37.088L270.333 39.008V65.312L274.173 67.232V68H262.173ZM328.396 68V67.232L332.236 65.312V39.104L328.444 37.088V36.32H335.5L353.836 59.36V38.912L349.036 37.088V36.32H360.988V37.088L357.196 38.96V68.24H355.42L335.596 43.232V65.36L340.396 67.232V68H328.396ZM376.531 68.48C374.547 68.48 372.867 68.304 371.491 67.952C370.115 67.568 368.691 67.008 367.219 66.272L366.739 58.4H367.507L369.859 63.488C371.011 64.448 372.131 65.152 373.219 65.6C374.307 66.016 375.411 66.224 376.531 66.224C378.419 66.224 379.891 65.728 380.947 64.736C382.035 63.744 382.579 62.4 382.579 60.704C382.579 59.296 382.259 58.192 381.619 57.392C381.011 56.592 380.115 55.888 378.931 55.28C377.779 54.64 376.403 53.92 374.803 53.12C373.299 52.352 372.019 51.6 370.963 50.864C369.907 50.128 369.107 49.28 368.563 48.32C368.019 47.328 367.747 46.096 367.747 44.624C367.747 43.536 368.003 42.48 368.515 41.456C369.059 40.4 369.779 39.456 370.675 38.624C371.603 37.76 372.627 37.088 373.747 36.608C374.899 36.096 376.083 35.84 377.299 35.84C378.771 35.84 380.131 36.016 381.379 36.368C382.627 36.72 383.907 37.216 385.219 37.856L385.699 45.536H384.931L382.723 40.496C381.603 39.664 380.627 39.072 379.795 38.72C378.963 38.336 378.003 38.144 376.915 38.144C375.507 38.144 374.339 38.624 373.411 39.584C372.515 40.544 372.067 41.728 372.067 43.136C372.067 44.768 372.563 46.048 373.555 46.976C374.547 47.872 376.099 48.832 378.211 49.856C380.163 50.816 381.763 51.712 383.011 52.544C384.259 53.344 385.187 54.272 385.795 55.328C386.403 56.384 386.707 57.728 386.707 59.36C386.707 60.864 386.387 62.192 385.747 63.344C385.107 64.464 384.275 65.408 383.251 66.176C382.259 66.944 381.155 67.52 379.939 67.904C378.755 68.288 377.619 68.48 376.531 68.48Z" fill="white"/>
<g clip-path="url(#clip0_175_41)">
<path d="M278.875 50.4997C278.875 50.4997 286.375 38.833 299.5 38.833C312.625 38.833 320.125 50.4997 320.125 50.4997C320.125 50.4997 312.625 62.1663 299.5 62.1663C286.375 62.1663 278.875 50.4997 278.875 50.4997Z" stroke="#678D58" stroke-width="4" stroke-linecap="round" stroke-linejoin="round"/>
<path d="M299.5 54.8747C302.607 54.8747 305.125 52.9159 305.125 50.4997C305.125 48.0834 302.607 46.1247 299.5 46.1247C296.393 46.1247 293.875 48.0834 293.875 50.4997C293.875 52.9159 296.393 54.8747 299.5 54.8747Z" stroke="#678D58" stroke-width="4" stroke-linecap="round" stroke-linejoin="round"/>
</g>
<defs>
<clipPath id="clip0_175_41">
<rect width="45" height="35" fill="white" transform="translate(277 33)"/>
</clipPath>
</defs>
</svg>
