<svg width="21" height="20" viewBox="0 0 21 20" fill="none" xmlns="http://www.w3.org/2000/svg">
<g clip-path="url(#clip0_502_243)">
<path d="M20.3051 10.2303C20.3051 9.55056 20.25 8.86711 20.1324 8.19836H10.7001V12.0492H16.1015C15.8774 13.2911 15.1572 14.3898 14.1026 15.0879V17.5866H17.3251C19.2175 15.8449 20.3051 13.2728 20.3051 10.2303Z" fill="#4285F4"/>
<path d="M10.7 20.0006C13.397 20.0006 15.6715 19.1151 17.3287 17.5865L14.1062 15.0879C13.2096 15.6979 12.0522 16.0433 10.7037 16.0433C8.0948 16.0433 5.88279 14.2832 5.08911 11.9169H1.76373V14.4927C3.46133 17.8695 6.91898 20.0006 10.7 20.0006Z" fill="#34A853"/>
<path d="M5.08552 11.9169C4.66664 10.675 4.66664 9.33014 5.08552 8.08818V5.51239H1.76382C0.345489 8.33804 0.345489 11.6671 1.76382 14.4927L5.08552 11.9169Z" fill="#FBBC04"/>
<path d="M10.7 3.95805C12.1257 3.936 13.5036 4.47247 14.5361 5.45722L17.3911 2.60218C15.5833 0.904587 13.1839 -0.0287217 10.7 0.000673888C6.91898 0.000673888 3.46133 2.13185 1.76373 5.51234L5.08543 8.08813C5.87544 5.71811 8.09113 3.95805 10.7 3.95805Z" fill="#EA4335"/>
</g>
<defs>
<clipPath id="clip0_502_243">
<rect width="20" height="20" fill="white" transform="translate(0.5)"/>
</clipPath>
</defs>
</svg>
