<svg width="83" height="83" viewBox="0 0 83 83" fill="none" xmlns="http://www.w3.org/2000/svg">
<path d="M61.1949 0.65221C59.0848 -0.362342 56.447 -0.193245 54.3369 1.15949L26.3771 20.9432H6.50636C2.98941 20.9432 0 23.8178 0 27.1997V55.6071C0 58.9889 2.98941 61.8635 6.50636 61.8635H26.2013L54.3369 81.8164C55.5678 82.6618 56.7987 83 58.2055 83C59.2606 83 60.1398 82.8309 61.1949 82.3236C63.4809 81.3091 64.7119 79.1109 64.7119 76.7436V6.23225C64.7119 3.86496 63.3051 1.66676 61.1949 0.65221ZM3.51695 55.6071V27.1997C3.51695 25.6778 4.92374 24.3251 6.50636 24.3251H25.322V58.4817H6.50636C4.92374 58.4817 3.51695 57.1289 3.51695 55.6071ZM61.1949 76.7436C61.1949 77.9272 60.6674 78.7727 59.6123 79.28C58.5572 79.7873 57.5021 79.6182 56.447 79.1109L28.839 59.4962V23.4796L56.447 3.86496C57.3263 3.18859 58.5572 3.18859 59.6123 3.69587C60.6674 4.20315 61.1949 5.2177 61.1949 6.23225V76.7436Z" fill="#231F20"/>
<path d="M70.339 29.2285C69.2839 29.2285 68.5805 29.9049 68.5805 30.9194C68.5805 31.934 69.2839 32.6104 70.339 32.6104C75.4386 32.6104 79.483 36.4995 79.483 41.4031C79.483 46.3068 75.4386 50.1959 70.339 50.1959C69.2839 50.1959 68.5805 50.8723 68.5805 51.8868C68.5805 52.9014 69.2839 53.5778 70.339 53.5778C77.3729 53.5778 83 48.1668 83 41.4031C83 34.6395 77.3729 29.2285 70.339 29.2285Z" fill="#231F20"/>
</svg>
