<svg width="47" height="16" viewBox="0 0 47 16" fill="none" xmlns="http://www.w3.org/2000/svg">
<path d="M5.45924 8.18925H8.83365C9.869 8.18925 10.7083 7.34993 10.7083 6.31458C10.7083 5.27922 9.869 4.4399 8.83365 4.4399H5.45924V8.18925ZM5.45924 8.18925H9.58352C10.6189 8.18925 11.4582 9.02857 11.4582 10.0639C11.4582 11.0993 10.6189 11.9386 9.58352 11.9386H5.45924V8.18925ZM4.93433 14.9381H11.2332C12.4931 14.9381 13.1231 14.9381 13.6043 14.6929C14.0276 14.4772 14.3717 14.1331 14.5874 13.7098C14.8326 13.2285 14.8326 12.5986 14.8326 11.3387V5.0398C14.8326 3.7799 14.8326 3.14995 14.5874 2.66874C14.3717 2.24545 14.0276 1.9013 13.6043 1.68562C13.1231 1.44043 12.4931 1.44043 11.2332 1.44043L4.93433 1.44043C3.67443 1.44043 3.04448 1.44043 2.56327 1.68562C2.13998 1.9013 1.79583 2.24545 1.58015 2.66874C1.33496 3.14995 1.33496 3.7799 1.33496 5.0398L1.33496 11.3387C1.33496 12.5986 1.33496 13.2285 1.58015 13.7098C1.79583 14.1331 2.13998 14.4772 2.56327 14.6929C3.04448 14.9381 3.67443 14.9381 4.93433 14.9381Z" stroke="black" stroke-width="1.57544" stroke-linecap="round" stroke-linejoin="round"/>
<path d="M21.0759 13.5938C20.4859 13.5938 19.9526 13.4847 19.4758 13.2665C18.999 13.0442 18.6212 12.723 18.3424 12.3028C18.0677 11.8826 17.9303 11.3674 17.9303 10.7573C17.9303 10.232 18.0313 9.79968 18.2333 9.46027C18.4354 9.12087 18.7081 8.85217 19.0515 8.65418C19.395 8.45619 19.7788 8.30669 20.2031 8.20568C20.6274 8.10466 21.0597 8.02789 21.5001 7.97537C22.0577 7.91072 22.5103 7.85819 22.8577 7.81779C23.2052 7.77334 23.4578 7.70263 23.6154 7.60566C23.7729 7.50868 23.8517 7.3511 23.8517 7.13291V7.09048C23.8517 6.56117 23.7022 6.15105 23.4032 5.86013C23.1083 5.56921 22.6678 5.42375 22.082 5.42375C21.4718 5.42375 20.991 5.55911 20.6395 5.82983C20.292 6.09651 20.0516 6.39349 19.9182 6.72077L18.2151 6.33288C18.4172 5.7672 18.7121 5.31062 19.1 4.96313C19.492 4.6116 19.9425 4.35705 20.4516 4.19946C20.9607 4.03784 21.4961 3.95703 22.0577 3.95703C22.4294 3.95703 22.8234 4.00148 23.2396 4.09037C23.6598 4.17522 24.0517 4.3328 24.4154 4.56311C24.7831 4.79343 25.0841 5.12273 25.3184 5.55103C25.5528 5.97529 25.67 6.52683 25.67 7.20564V13.3877H23.9002V12.1149H23.8275C23.7103 12.3493 23.5345 12.5796 23.3002 12.8059C23.0658 13.0321 22.7648 13.22 22.3971 13.3695C22.0294 13.519 21.589 13.5938 21.0759 13.5938ZM21.4698 12.1392C21.9708 12.1392 22.3991 12.0402 22.7547 11.8422C23.1143 11.6442 23.3871 11.3856 23.5729 11.0664C23.7628 10.7431 23.8578 10.3977 23.8578 10.03V8.82994C23.7931 8.89459 23.6679 8.9552 23.482 9.01177C23.3002 9.0643 23.0921 9.11076 22.8577 9.15117C22.6234 9.18753 22.3951 9.22188 22.1729 9.2542C21.9506 9.28249 21.7648 9.30673 21.6153 9.32693C21.2637 9.37138 20.9425 9.44613 20.6516 9.55118C20.3647 9.65624 20.1344 9.80776 19.9607 10.0057C19.791 10.1997 19.7061 10.4583 19.7061 10.7815C19.7061 11.23 19.8718 11.5694 20.2031 11.7998C20.5344 12.026 20.9567 12.1392 21.4698 12.1392ZM35.0597 6.35106L33.4172 6.64198C33.3486 6.43187 33.2395 6.23187 33.09 6.04196C32.9445 5.85205 32.7465 5.69649 32.496 5.57527C32.2455 5.45406 31.9323 5.39345 31.5566 5.39345C31.0434 5.39345 30.6151 5.50861 30.2717 5.73892C29.9282 5.96519 29.7565 6.25813 29.7565 6.61774C29.7565 6.92886 29.8717 7.17938 30.102 7.36928C30.3323 7.55919 30.704 7.71475 31.2172 7.83597L32.696 8.17537C33.5526 8.37336 34.191 8.67842 34.6112 9.09056C35.0314 9.5027 35.2416 10.0381 35.2416 10.6967C35.2416 11.2543 35.0799 11.7513 34.7567 12.1876C34.4375 12.62 33.991 12.9594 33.4172 13.2059C32.8475 13.4523 32.1869 13.5756 31.4353 13.5756C30.3929 13.5756 29.5423 13.3534 28.8837 12.9089C28.2251 12.4604 27.8211 11.824 27.6716 10.9997L29.4231 10.733C29.5322 11.1896 29.7565 11.5351 30.0959 11.7695C30.4353 11.9998 30.8778 12.1149 31.4232 12.1149C32.0172 12.1149 32.492 11.9917 32.8475 11.7452C33.2031 11.4947 33.3809 11.1896 33.3809 10.83C33.3809 10.5391 33.2718 10.2946 33.0536 10.0967C32.8394 9.89867 32.5101 9.74917 32.0657 9.64816L30.4899 9.30269C29.6211 9.1047 28.9787 8.78954 28.5625 8.3572C28.1504 7.92486 27.9443 7.37736 27.9443 6.71471C27.9443 6.1652 28.0978 5.68437 28.4049 5.27223C28.712 4.8601 29.1363 4.53887 29.6777 4.30856C30.2191 4.07421 30.8394 3.95703 31.5384 3.95703C32.5445 3.95703 33.3364 4.17522 33.9142 4.6116C34.492 5.04394 34.8739 5.62376 35.0597 6.35106ZM38.9008 10.23L38.8887 8.01779H39.2038L42.9131 4.07825H45.0828L40.8524 8.56327H40.5675L38.9008 10.23ZM37.2341 13.3877V0.975099H39.0462V13.3877H37.2341ZM43.1131 13.3877L39.7796 8.96328L41.0281 7.69657L45.3374 13.3877H43.1131Z" fill="black"/>
</svg>
