<svg width="43" height="14" viewBox="0 0 43 14" fill="none" xmlns="http://www.w3.org/2000/svg">
<path d="M4.11933 12.9531H0.100993V0.540528H4.24661C5.46281 0.540528 6.5073 0.789023 7.38006 1.28601C8.25282 1.77896 8.92153 2.48808 9.3862 3.41337C9.8549 4.33461 10.0893 5.43971 10.0893 6.72864C10.0893 8.02162 9.85288 9.13278 9.38014 10.0621C8.91143 10.9914 8.23262 11.7066 7.34369 12.2076C6.45477 12.7046 5.37998 12.9531 4.11933 12.9531ZM1.97379 11.3167H4.01629C4.96179 11.3167 5.74767 11.1389 6.37396 10.7833C7.00025 10.4237 7.46895 9.90452 7.78008 9.22571C8.0912 8.54286 8.24676 7.7105 8.24676 6.72864C8.24676 5.75487 8.0912 4.92858 7.78008 4.24976C7.47299 3.57095 7.01439 3.05578 6.40426 2.70425C5.79414 2.35272 5.03654 2.17695 4.13145 2.17695H1.97379V11.3167ZM14.2909 12.9531L11.5514 3.64368H13.4242L15.2485 10.4803H15.3395L17.1698 3.64368H19.0426L20.8609 10.45H20.9518L22.764 3.64368H24.6368L21.9033 12.9531H20.0548L18.1638 6.23166H18.0244L16.1334 12.9531H14.2909ZM30.0855 13.141C29.1683 13.141 28.3783 12.945 27.7157 12.5531C27.0571 12.1571 26.548 11.6016 26.1884 10.8864C25.8328 10.1672 25.655 9.3247 25.655 8.35901C25.655 7.40544 25.8328 6.565 26.1884 5.8377C26.548 5.1104 27.049 4.5427 27.6914 4.13461C28.3379 3.72651 29.0935 3.52246 29.9582 3.52246C30.4835 3.52246 30.9926 3.60933 31.4855 3.78308C31.9785 3.95682 32.4209 4.22956 32.8129 4.60129C33.2048 4.97302 33.5139 5.45587 33.7402 6.04983C33.9664 6.63975 34.0796 7.35695 34.0796 8.20143V8.84388H26.6793V7.48625H32.3037C32.3037 7.00946 32.2068 6.58722 32.0128 6.21953C31.8189 5.8478 31.5461 5.55486 31.1946 5.34071C30.8471 5.12656 30.439 5.01949 29.9703 5.01949C29.4612 5.01949 29.0167 5.14475 28.6369 5.39526C28.2612 5.64173 27.9702 5.96498 27.7642 6.36499C27.5621 6.76097 27.4611 7.19129 27.4611 7.65595V8.7166C27.4611 9.33885 27.5702 9.86816 27.7884 10.3045C28.0106 10.7409 28.3198 11.0743 28.7157 11.3046C29.1117 11.5308 29.5743 11.644 30.1037 11.644C30.4471 11.644 30.7602 11.5955 31.0431 11.4985C31.3259 11.3975 31.5704 11.248 31.7764 11.05C31.9825 10.852 32.1401 10.6076 32.2492 10.3167L33.9644 10.6258C33.827 11.1308 33.5806 11.5733 33.225 11.9531C32.8735 12.3289 32.431 12.6218 31.8977 12.8319C31.3684 13.038 30.7643 13.141 30.0855 13.141ZM37.9024 0.540528V12.9531H36.0902V0.540528H37.9024ZM42.1526 0.540528V12.9531H40.3404V0.540528H42.1526Z" fill="black"/>
</svg>
