<svg width="62" height="18" viewBox="0 0 62 18" fill="none" xmlns="http://www.w3.org/2000/svg">
<path d="M13.4869 8.31641H0.883301" stroke="#187FF5" stroke-width="1.31287" stroke-linecap="round" stroke-linejoin="round"/>
<path d="M3.771 1.22705L11.3856 5.42824H3.771V1.22705Z" stroke="#E82626" stroke-width="1.31287" stroke-linejoin="round"/>
<path d="M3.771 15.4058V11.2046H11.3856L3.771 15.4058Z" stroke="#E3F032" stroke-width="1.31287" stroke-linejoin="round"/>
<path d="M21.2194 13.6406L17.7768 1.22803H19.7466L22.1649 10.8405H22.28L24.7953 1.22803H26.7469L29.2621 10.8466H29.3773L31.7895 1.22803H33.7653L30.3167 13.6406H28.4318L25.8196 4.3433H25.7226L23.1104 13.6406H21.2194ZM37.12 13.8467C36.5301 13.8467 35.9967 13.7376 35.5199 13.5194C35.0431 13.2972 34.6653 12.976 34.3865 12.5557C34.1118 12.1355 33.9744 11.6203 33.9744 11.0102C33.9744 10.4849 34.0754 10.0526 34.2775 9.7132C34.4795 9.37379 34.7522 9.1051 35.0957 8.90711C35.4391 8.70912 35.823 8.55962 36.2472 8.45861C36.6715 8.35759 37.1038 8.28082 37.5442 8.2283C38.1018 8.16365 38.5544 8.11112 38.9019 8.07071C39.2494 8.02627 39.5019 7.95556 39.6595 7.85859C39.8171 7.76161 39.8959 7.60403 39.8959 7.38584V7.34341C39.8959 6.8141 39.7463 6.40398 39.4473 6.11306C39.1524 5.82214 38.712 5.67668 38.1261 5.67668C37.516 5.67668 37.0351 5.81204 36.6836 6.08276C36.3361 6.34944 36.0957 6.64642 35.9624 6.9737L34.2593 6.58581C34.4613 6.02013 34.7563 5.56355 35.1442 5.21606C35.5361 4.86453 35.9866 4.60998 36.4957 4.45239C37.0048 4.29077 37.5402 4.20996 38.1018 4.20996C38.4736 4.20996 38.8675 4.25441 39.2837 4.3433C39.7039 4.42815 40.0959 4.58573 40.4595 4.81604C40.8272 5.04636 41.1282 5.37566 41.3626 5.80396C41.5969 6.22822 41.7141 6.77976 41.7141 7.45857V13.6406H39.9443V12.3678H39.8716C39.7544 12.6022 39.5787 12.8325 39.3443 13.0588C39.11 13.2851 38.8089 13.4729 38.4412 13.6224C38.0736 13.7719 37.6331 13.8467 37.12 13.8467ZM37.5139 12.3921C38.015 12.3921 38.4433 12.2931 38.7988 12.0951C39.1584 11.8971 39.4312 11.6385 39.6171 11.3193C39.807 10.9961 39.9019 10.6506 39.9019 10.2829V9.08287C39.8373 9.14752 39.712 9.20813 39.5261 9.2647C39.3443 9.31723 39.1362 9.36369 38.9019 9.4041C38.6675 9.44046 38.4392 9.47481 38.217 9.50713C37.9948 9.53542 37.8089 9.55966 37.6594 9.57986C37.3079 9.62431 36.9866 9.69906 36.6957 9.80411C36.4088 9.90917 36.1785 10.0607 36.0048 10.2587C35.8351 10.4526 35.7502 10.7112 35.7502 11.0345C35.7502 11.483 35.9159 11.8224 36.2472 12.0527C36.5786 12.279 37.0008 12.3921 37.5139 12.3921ZM44.94 17.1317C44.6693 17.1317 44.4228 17.1094 44.2006 17.065C43.9783 17.0246 43.8127 16.9801 43.7036 16.9317L44.14 15.4468C44.4713 15.5356 44.7662 15.574 45.0248 15.5619C45.2834 15.5498 45.5117 15.4528 45.7097 15.271C45.9117 15.0892 46.0895 14.7922 46.2431 14.38L46.4673 13.7618L43.0611 4.33118H45.0006L47.3583 11.5557H47.4552L49.8129 4.33118H51.7584L47.9219 14.8831C47.7441 15.368 47.5179 15.7781 47.2431 16.1134C46.9683 16.4529 46.6411 16.7074 46.2612 16.8771C45.8814 17.0468 45.441 17.1317 44.94 17.1317ZM60.4375 6.60399L58.7951 6.89491C58.7264 6.6848 58.6173 6.4848 58.4678 6.29489C58.3223 6.10498 58.1243 5.94942 57.8738 5.8282C57.6233 5.70699 57.3102 5.64638 56.9344 5.64638C56.4212 5.64638 55.9929 5.76154 55.6495 5.99185C55.306 6.21812 55.1343 6.51106 55.1343 6.87067C55.1343 7.18179 55.2495 7.43231 55.4798 7.62221C55.7101 7.81212 56.0818 7.96768 56.595 8.0889L58.0738 8.4283C58.9304 8.62629 59.5688 8.93135 59.989 9.34349C60.4093 9.75563 60.6194 10.291 60.6194 10.9496C60.6194 11.5072 60.4577 12.0042 60.1345 12.4406C59.8153 12.8729 59.3688 13.2123 58.7951 13.4588C58.2253 13.7053 57.5647 13.8285 56.8132 13.8285C55.7707 13.8285 54.9202 13.6063 54.2616 13.1618C53.6029 12.7133 53.1989 12.0769 53.0494 11.2527L54.801 10.986C54.9101 11.4426 55.1343 11.788 55.4737 12.0224C55.8131 12.2527 56.2556 12.3678 56.801 12.3678C57.395 12.3678 57.8698 12.2446 58.2253 11.9981C58.5809 11.7476 58.7587 11.4426 58.7587 11.083C58.7587 10.792 58.6496 10.5476 58.4314 10.3496C58.2173 10.1516 57.888 10.0021 57.4435 9.90109L55.8677 9.55562C54.999 9.35763 54.3565 9.04247 53.9403 8.61013C53.5282 8.17779 53.3221 7.63029 53.3221 6.96764C53.3221 6.41813 53.4757 5.9373 53.7827 5.52516C54.0898 5.11303 54.5141 4.7918 55.0555 4.56149C55.597 4.32714 56.2172 4.20996 56.9162 4.20996C57.9223 4.20996 58.7142 4.42815 59.292 4.86453C59.8698 5.29687 60.2517 5.87669 60.4375 6.60399Z" fill="black"/>
</svg>
