<svg width="61" height="19" viewBox="0 0 61 19" fill="none" xmlns="http://www.w3.org/2000/svg">
<path fill-rule="evenodd" clip-rule="evenodd" d="M7.84912 0.766113H18.3252V7.94107L13.1956 10.1205L13.1759 10.086L11.6883 10.7247L9.80872 18.6209H0.465688V15.5432L0.45752 15.5467V0.79062H7.86313L7.84912 0.766113ZM9.65916 1.81641L13.6442 8.78874L17.2749 7.24615V1.81641H9.65916ZM7.9163 1.84092H1.50782V13.9528L12.1528 9.38224L7.9163 1.84092ZM1.51599 15.5576V17.5706H8.97909L10.3625 11.7588L1.51599 15.5576Z" fill="black"/>
<path d="M21.3061 9.39134C21.3061 8.67014 21.4671 8.02596 21.7892 7.4588C22.1183 6.88464 22.5629 6.44001 23.1231 6.12492C23.6903 5.80283 24.3239 5.64179 25.0241 5.64179C25.8434 5.64179 26.5611 5.85185 27.1772 6.27196C27.7934 6.69208 28.224 7.27325 28.4691 8.01546H26.7781C26.6101 7.66536 26.372 7.40278 26.0639 7.22773C25.7628 7.05268 25.4127 6.96516 25.0136 6.96516C24.5865 6.96516 24.2049 7.06669 23.8688 7.26975C23.5397 7.4658 23.2806 7.74588 23.0916 8.10998C22.9095 8.47409 22.8185 8.90121 22.8185 9.39134C22.8185 9.87448 22.9095 10.3016 23.0916 10.6727C23.2806 11.0368 23.5397 11.3204 23.8688 11.5234C24.2049 11.7195 24.5865 11.8175 25.0136 11.8175C25.4127 11.8175 25.7628 11.73 26.0639 11.555C26.372 11.3729 26.6101 11.1068 26.7781 10.7567H28.4691C28.224 11.5059 27.7934 12.0906 27.1772 12.5107C26.5681 12.9238 25.8504 13.1304 25.0241 13.1304C24.3239 13.1304 23.6903 12.9729 23.1231 12.6578C22.5629 12.3357 22.1183 11.8911 21.7892 11.3239C21.4671 10.7567 21.3061 10.1125 21.3061 9.39134ZM30.9854 8.15199C31.1744 7.84391 31.4195 7.60234 31.7206 7.42729C32.0287 7.25224 32.3788 7.16472 32.7709 7.16472V8.70865H32.3823C31.9201 8.70865 31.57 8.81718 31.332 9.03424C31.1009 9.25131 30.9854 9.62941 30.9854 10.1686V13.0674H29.515V7.24874H30.9854V8.15199ZM33.1731 10.1371C33.1731 9.54889 33.2887 9.02724 33.5197 8.57211C33.7578 8.11698 34.0764 7.76689 34.4755 7.52182C34.8816 7.27675 35.3332 7.15421 35.8304 7.15421C36.2645 7.15421 36.6426 7.24174 36.9647 7.41679C37.2938 7.59184 37.5564 7.8124 37.7524 8.07847V7.24874H39.2333V13.0674H37.7524V12.2166C37.5634 12.4897 37.3008 12.7173 36.9647 12.8993C36.6356 13.0744 36.254 13.1619 35.8199 13.1619C35.3297 13.1619 34.8816 13.0359 34.4755 12.7838C34.0764 12.5317 33.7578 12.1781 33.5197 11.723C33.2887 11.2609 33.1731 10.7322 33.1731 10.1371ZM37.7524 10.1581C37.7524 9.80096 37.6824 9.49637 37.5424 9.2443C37.4023 8.98523 37.2133 8.78917 36.9752 8.65614C36.7371 8.5161 36.4816 8.44608 36.2085 8.44608C35.9354 8.44608 35.6833 8.5126 35.4523 8.64563C35.2212 8.77867 35.0321 8.97473 34.8851 9.2338C34.7451 9.48587 34.675 9.78696 34.675 10.1371C34.675 10.4872 34.7451 10.7952 34.8851 11.0613C35.0321 11.3204 35.2212 11.5199 35.4523 11.66C35.6903 11.8 35.9424 11.87 36.2085 11.87C36.4816 11.87 36.7371 11.8035 36.9752 11.6705C37.2133 11.5304 37.4023 11.3344 37.5424 11.0823C37.6824 10.8232 37.7524 10.5152 37.7524 10.1581ZM43.1271 8.45658H42.1084V13.0674H40.6169V8.45658H39.9552V7.24874H40.6169V6.95466C40.6169 6.24045 40.82 5.71531 41.2261 5.37921C41.6322 5.04312 42.2449 4.88557 43.0641 4.90658V6.14593C42.707 6.13893 42.4585 6.19844 42.3184 6.32448C42.1784 6.45051 42.1084 6.67808 42.1084 7.00717V7.24874H43.1271V8.45658ZM45.582 8.45658V11.2714C45.582 11.4674 45.6275 11.611 45.7185 11.702C45.8165 11.786 45.9776 11.828 46.2016 11.828H46.8843V13.0674H45.9601C44.7207 13.0674 44.101 12.4652 44.101 11.2609V8.45658H43.4078V7.24874H44.101V5.80983H45.582V7.24874H46.8843V8.45658H45.582ZM53.1409 10.032C53.1409 10.2421 53.1269 10.4311 53.0989 10.5992H48.8452C48.8802 11.0193 49.0272 11.3484 49.2863 11.5865C49.5454 11.8245 49.864 11.9436 50.2421 11.9436C50.7882 11.9436 51.1768 11.709 51.4079 11.2399H52.9939C52.8258 11.8 52.5037 12.2622 52.0276 12.6263C51.5514 12.9834 50.9668 13.1619 50.2736 13.1619C49.7134 13.1619 49.2093 13.0394 48.7612 12.7943C48.32 12.5422 47.9734 12.1886 47.7214 11.7335C47.4763 11.2784 47.3538 10.7532 47.3538 10.1581C47.3538 9.55589 47.4763 9.02724 47.7214 8.57211C47.9664 8.11698 48.3095 7.76689 48.7507 7.52182C49.1918 7.27675 49.6994 7.15421 50.2736 7.15421C50.8267 7.15421 51.3204 7.27325 51.7545 7.51131C52.1956 7.74938 52.5352 8.08898 52.7733 8.5301C53.0184 8.96422 53.1409 9.46487 53.1409 10.032ZM51.618 9.61191C51.611 9.2338 51.4744 8.93272 51.2084 8.70865C50.9423 8.47759 50.6167 8.36205 50.2316 8.36205C49.8675 8.36205 49.5594 8.47409 49.3073 8.69815C49.0622 8.91521 48.9117 9.2198 48.8557 9.61191H51.618ZM53.626 10.1371C53.626 9.54889 53.7415 9.02724 53.9726 8.57211C54.2107 8.11698 54.5328 7.76689 54.9389 7.52182C55.345 7.27675 55.7966 7.15421 56.2938 7.15421C56.6719 7.15421 57.0325 7.23824 57.3756 7.40628C57.7187 7.56733 57.9917 7.78439 58.1948 8.05747V5.29519H59.6862V13.0674H58.1948V12.2061C58.0127 12.4932 57.7572 12.7243 57.4281 12.8993C57.099 13.0744 56.7174 13.1619 56.2833 13.1619C55.7931 13.1619 55.345 13.0359 54.9389 12.7838C54.5328 12.5317 54.2107 12.1781 53.9726 11.723C53.7415 11.2609 53.626 10.7322 53.626 10.1371ZM58.2053 10.1581C58.2053 9.80096 58.1353 9.49637 57.9952 9.2443C57.8552 8.98523 57.6661 8.78917 57.4281 8.65614C57.19 8.5161 56.9344 8.44608 56.6614 8.44608C56.3883 8.44608 56.1362 8.5126 55.9051 8.64563C55.6741 8.77867 55.485 8.97473 55.338 9.2338C55.1979 9.48587 55.1279 9.78696 55.1279 10.1371C55.1279 10.4872 55.1979 10.7952 55.338 11.0613C55.485 11.3204 55.6741 11.5199 55.9051 11.66C56.1432 11.8 56.3953 11.87 56.6614 11.87C56.9344 11.87 57.19 11.8035 57.4281 11.6705C57.6661 11.5304 57.8552 11.3344 57.9952 11.0823C58.1353 10.8232 58.2053 10.5152 58.2053 10.1581Z" fill="black"/>
</svg>
