<svg width="102" height="22" viewBox="0 0 102 22" fill="none" xmlns="http://www.w3.org/2000/svg">
<path d="M19.7712 1.55541C19.3164 1.67672 19.0465 2.14209 19.1684 2.59484C19.2902 3.04759 19.7577 3.31627 20.2125 3.19495L22.6073 2.55616L17.2172 12.3264L13.2078 8.94159C12.9933 8.76051 12.7029 8.6964 12.4316 8.77022C12.1603 8.84403 11.9431 9.04629 11.8509 9.3108L9.34441 16.506L5.85946 13.359C5.68323 13.1999 5.44821 13.1213 5.21121 13.1423C4.97421 13.1632 4.7568 13.2818 4.61153 13.4694L0.195467 19.1717C-0.0920106 19.5429 -0.0227807 20.0758 0.3501 20.362C0.722981 20.6482 1.25831 20.5792 1.54579 20.208L5.39795 15.2339L9.1544 18.6261C9.36643 18.8176 9.66084 18.8903 9.9382 18.8198C10.2156 18.7492 10.4388 18.5448 10.5326 18.2756L13.0541 11.0374L16.9106 14.293C17.1058 14.4578 17.3651 14.5266 17.6168 14.4803C17.8685 14.4341 18.086 14.2776 18.2092 14.0543L24.0702 3.43048L24.7012 5.77487C24.8231 6.22762 25.2905 6.4963 25.7453 6.37498C26.2001 6.25367 26.47 5.7883 26.3481 5.33555L25.1789 0.99155C25.057 0.538801 24.5896 0.27012 24.1348 0.391434L19.7712 1.55541Z" fill="black"/>
<path d="M38.4776 10.9275C38.3324 10.4718 38.1371 10.0637 37.8917 9.7031C37.6513 9.33753 37.3634 9.02706 37.0279 8.77167C36.6923 8.51126 36.3092 8.31346 35.8786 8.17825C35.4529 8.04304 34.9847 7.97544 34.4739 7.97544C33.6076 7.97544 32.8264 8.19828 32.1303 8.64397C31.4342 9.08965 30.8834 9.74316 30.4778 10.6045C30.0772 11.4608 29.8768 12.5099 29.8768 13.7518C29.8768 14.9987 30.0797 16.0529 30.4853 16.9142C30.8909 17.7755 31.4468 18.429 32.1529 18.8747C32.8589 19.3204 33.6627 19.5432 34.5641 19.5432C35.4003 19.5432 36.129 19.373 36.7499 19.0325C37.3759 18.6919 37.8591 18.2112 38.1997 17.5902C38.5452 16.9643 38.718 16.2281 38.718 15.3818L39.3189 15.4945H34.9171V13.5791H40.9639V15.3293C40.9639 16.6212 40.6885 17.743 40.1376 18.6944C39.5918 19.6409 38.8356 20.372 37.8691 20.8878C36.9077 21.4036 35.806 21.6615 34.5641 21.6615C33.1719 21.6615 31.95 21.341 30.8984 20.7C29.8518 20.059 29.0356 19.1501 28.4497 17.9733C27.8638 16.7915 27.5708 15.3893 27.5708 13.7668C27.5708 12.54 27.7411 11.4383 28.0816 10.4618C28.4221 9.48526 28.9003 8.65649 29.5163 7.97544C30.1373 7.28938 30.8659 6.76608 31.7022 6.40552C32.5435 6.03996 33.4624 5.85718 34.4589 5.85718C35.2902 5.85718 36.0639 5.97987 36.78 6.22525C37.5011 6.47062 38.1421 6.81866 38.7029 7.26935C39.2688 7.72005 39.737 8.25587 40.1076 8.87683C40.4782 9.49277 40.7285 10.1763 40.8587 10.9275H38.4776ZM43.73 21.4512V9.91342H45.9009V11.7462H46.0211C46.2314 11.1253 46.602 10.637 47.1328 10.2815C47.6686 9.92093 48.2745 9.74066 48.9506 9.74066C49.0908 9.74066 49.256 9.74566 49.4463 9.75568C49.6416 9.76569 49.7944 9.77821 49.9045 9.79324V11.9415C49.8144 11.9165 49.6542 11.889 49.4238 11.8589C49.1934 11.8239 48.9631 11.8063 48.7327 11.8063C48.2019 11.8063 47.7287 11.919 47.313 12.1444C46.9024 12.3647 46.5769 12.6727 46.3365 13.0683C46.0962 13.4589 45.976 13.9046 45.976 14.4053V21.4512H43.73ZM56.295 21.684C55.2133 21.684 54.2694 21.4361 53.4631 20.9404C52.6569 20.4446 52.0309 19.7511 51.5852 18.8597C51.1396 17.9683 50.9167 16.9267 50.9167 15.7349C50.9167 14.538 51.1396 13.4914 51.5852 12.595C52.0309 11.6987 52.6569 11.0026 53.4631 10.5068C54.2694 10.0111 55.2133 9.76319 56.295 9.76319C57.3767 9.76319 58.3206 10.0111 59.1269 10.5068C59.9331 11.0026 60.5591 11.6987 61.0047 12.595C61.4504 13.4914 61.6733 14.538 61.6733 15.7349C61.6733 16.9267 61.4504 17.9683 61.0047 18.8597C60.5591 19.7511 59.9331 20.4446 59.1269 20.9404C58.3206 21.4361 57.3767 21.684 56.295 21.684ZM56.3025 19.7986C57.0036 19.7986 57.5845 19.6133 58.0452 19.2428C58.5059 18.8722 58.8464 18.3789 59.0668 17.763C59.2921 17.1471 59.4048 16.4685 59.4048 15.7274C59.4048 14.9912 59.2921 14.3152 59.0668 13.6992C58.8464 13.0783 58.5059 12.58 58.0452 12.2044C57.5845 11.8289 57.0036 11.6411 56.3025 11.6411C55.5964 11.6411 55.0105 11.8289 54.5448 12.2044C54.0841 12.58 53.7411 13.0783 53.5157 13.6992C53.2954 14.3152 53.1852 14.9912 53.1852 15.7274C53.1852 16.4685 53.2954 17.1471 53.5157 17.763C53.7411 18.3789 54.0841 18.8722 54.5448 19.2428C55.0105 19.6133 55.5964 19.7986 56.3025 19.7986ZM66.3304 21.4512L62.9352 9.91342H65.2563L67.5173 18.3865H67.6299L69.8984 9.91342H72.2195L74.473 18.3489H74.5856L76.8316 9.91342H79.1527L75.7649 21.4512H73.4739L71.1303 13.1209H70.9575L68.6139 21.4512H66.3304ZM86.6698 9.91342V11.7162H80.3677V9.91342H86.6698ZM82.0578 7.14917H84.3037V18.0635C84.3037 18.4991 84.3688 18.8271 84.499 19.0475C84.6292 19.2628 84.797 19.4105 85.0023 19.4907C85.2126 19.5658 85.4405 19.6033 85.6858 19.6033C85.8661 19.6033 86.0239 19.5908 86.1591 19.5658C86.2943 19.5407 86.3994 19.5207 86.4745 19.5057L86.8802 21.361C86.75 21.4111 86.5647 21.4612 86.3243 21.5113C86.0839 21.5663 85.7835 21.5964 85.4229 21.6014C84.832 21.6114 84.2812 21.5063 83.7704 21.2859C83.2596 21.0656 82.8465 20.7251 82.531 20.2643C82.2155 19.8036 82.0578 19.2252 82.0578 18.5292V7.14917ZM91.6481 14.6006V21.4512H89.4022V6.0675H91.6181V11.7913H91.7608C92.0312 11.1704 92.4444 10.6771 93.0002 10.3115C93.5561 9.94597 94.2822 9.76319 95.1786 9.76319C95.9698 9.76319 96.6608 9.92594 97.2518 10.2514C97.8477 10.5769 98.3084 11.0627 98.6339 11.7087C98.9644 12.3497 99.1296 13.1509 99.1296 14.1124V21.4512H96.8837V14.3828C96.8837 13.5365 96.6659 12.8805 96.2302 12.4148C95.7945 11.944 95.1886 11.7087 94.4124 11.7087C93.8816 11.7087 93.4058 11.8214 92.9852 12.0467C92.5696 12.272 92.2415 12.6026 92.0012 13.0382C91.7658 13.4689 91.6481 13.9897 91.6481 14.6006Z" fill="black"/>
</svg>
